<?xml version="1.0" standalone="no"?>
<!DOCTYPE svg PUBLIC "-//W3C//DTD SVG 20010904//EN"
 "http://www.w3.org/TR/2001/REC-SVG-20010904/DTD/svg10.dtd">
<svg version="1.0" xmlns="http://www.w3.org/2000/svg"
 width="48.000000pt" height="48.000000pt" viewBox="0 0 48.000000 48.000000"
 preserveAspectRatio="xMidYMid meet">

<g transform="translate(0.000000,48.000000) scale(0.100000,-0.100000)"
fill="#000000" stroke="none">
<path d="M88 419 c-25 -13 -40 -28 -45 -46 -8 -35 13 -333 25 -345 5 -5 47 -8
93 -6 l84 3 7 40 c3 22 10 97 13 166 l8 126 -27 19 c-15 10 -40 29 -56 42 -33
26 -52 26 -102 1z m84 -19 c7 -11 20 -20 29 -20 9 0 24 -9 34 -20 25 -27 5
-25 -49 5 -55 30 -70 31 -97 4 -11 -11 -23 -18 -26 -15 -10 9 6 36 24 42 10 3
25 9 33 14 24 14 39 11 52 -10z m-8 -52 c15 -25 5 -29 -37 -14 -29 10 -34 15
-24 25 16 16 47 10 61 -11z m-16 -48 c42 -26 66 -80 59 -138 -7 -64 -35 -96
-84 -100 l-41 -3 -6 73 c-4 40 -9 99 -12 131 l-6 57 29 0 c15 0 43 -9 61 -20z
m98 -52 c-17 -188 -17 -188 -38 -188 -20 0 -20 1 -3 26 28 43 31 123 6 172
-25 50 -25 49 -3 55 44 12 44 10 38 -65z"/>
<path d="M326 431 c-4 -5 -6 -29 -5 -53 1 -24 -6 -59 -15 -79 -11 -28 -15 -66
-13 -155 l2 -119 70 0 70 0 2 115 c2 86 -1 126 -13 159 -9 24 -17 65 -18 90
-1 46 -1 46 -38 49 -20 2 -39 -1 -42 -7z m64 -21 c0 -5 -11 -10 -25 -10 -14 0
-25 5 -25 10 0 6 11 10 25 10 14 0 25 -4 25 -10z m-10 -45 c0 -9 7 -29 15 -45
l16 -30 -46 0 -46 0 16 30 c8 16 15 36 15 45 0 8 7 15 15 15 8 0 15 -7 15 -15z
m40 -135 l0 -40 -55 0 -55 0 0 40 0 40 55 0 55 0 0 -40z m-10 -92 c0 -18 3
-43 6 -55 6 -22 4 -23 -51 -23 -55 0 -57 1 -51 23 3 12 6 37 6 55 0 31 1 32
45 32 44 0 45 -1 45 -32z"/>
</g>
</svg>
