<?xml version="1.0" encoding="UTF-8" standalone="no"?>
<!-- Created with Inkscape (http://www.inkscape.org/) -->

<svg
   xmlns:dc="http://purl.org/dc/elements/1.1/"
   xmlns:cc="http://creativecommons.org/ns#"
   xmlns:rdf="http://www.w3.org/1999/02/22-rdf-syntax-ns#"
   xmlns:svg="http://www.w3.org/2000/svg"
   xmlns="http://www.w3.org/2000/svg"
   xmlns:xlink="http://www.w3.org/1999/xlink"
   xmlns:sodipodi="http://sodipodi.sourceforge.net/DTD/sodipodi-0.dtd"
   xmlns:inkscape="http://www.inkscape.org/namespaces/inkscape"
   width="210mm"
   height="297mm"
   id="svg2"
   version="1.1"
   inkscape:version="0.48.1 "
   sodipodi:docname="Documento nuevo 1">
  <defs
     id="defs4">
    <linearGradient
       id="linearGradient4062">
      <stop
         style="stop-color:#727272;stop-opacity:1;"
         offset="0"
         id="stop4064" />
      <stop
         id="stop4072"
         offset="0.25"
         style="stop-color:#868686;stop-opacity:1;" />
      <stop
         id="stop4070"
         offset="0.5"
         style="stop-color:#bbbbbb;stop-opacity:1;" />
      <stop
         style="stop-color:#ffffff;stop-opacity:1;"
         offset="1"
         id="stop4066" />
    </linearGradient>
    <linearGradient
       id="linearGradient3902">
      <stop
         style="stop-color:#b7b7b7;stop-opacity:1;"
         offset="0"
         id="stop3904" />
      <stop
         id="stop3912"
         offset="0.23677827"
         style="stop-color:#a0a0a0;stop-opacity:1;" />
      <stop
         id="stop3910"
         offset="0.53966516"
         style="stop-color:#515151;stop-opacity:1;" />
      <stop
         style="stop-color:#282828;stop-opacity:1;"
         offset="1"
         id="stop3906" />
    </linearGradient>
    <linearGradient
       id="linearGradient3858">
      <stop
         style="stop-color:#e5e5e5;stop-opacity:1;"
         offset="0"
         id="stop3860" />
      <stop
         id="stop3868"
         offset="0.25"
         style="stop-color:#a0a0a0;stop-opacity:1;" />
      <stop
         id="stop3866"
         offset="0.5"
         style="stop-color:#545454;stop-opacity:1;" />
      <stop
         style="stop-color:#1c1c1c;stop-opacity:1;"
         offset="1"
         id="stop3862" />
    </linearGradient>
    <linearGradient
       id="linearGradient3846">
      <stop
         style="stop-color:#444444;stop-opacity:1;"
         offset="0"
         id="stop3848" />
      <stop
         id="stop3856"
         offset="0.25"
         style="stop-color:#676767;stop-opacity:1;" />
      <stop
         id="stop3854"
         offset="0.5"
         style="stop-color:#a7a7a7;stop-opacity:1;" />
      <stop
         style="stop-color:#c4c4c4;stop-opacity:1;"
         offset="1"
         id="stop3850" />
    </linearGradient>
    <linearGradient
       id="linearGradient3826">
      <stop
         style="stop-color:#510000;stop-opacity:1;"
         offset="0"
         id="stop3828" />
      <stop
         id="stop3836"
         offset="0.28411567"
         style="stop-color:#960000;stop-opacity:1;" />
      <stop
         id="stop3834"
         offset="0.52274376"
         style="stop-color:#eb0000;stop-opacity:1;" />
      <stop
         style="stop-color:#ff1f1f;stop-opacity:1;"
         offset="1"
         id="stop3830" />
    </linearGradient>
    <linearGradient
       inkscape:collect="always"
       xlink:href="#linearGradient3826"
       id="linearGradient3832"
       x1="133.177"
       y1="625.69354"
       x2="630.61865"
       y2="625.69354"
       gradientUnits="userSpaceOnUse" />
    <linearGradient
       inkscape:collect="always"
       xlink:href="#linearGradient3826"
       id="linearGradient3844"
       x1="130.71964"
       y1="354.2131"
       x2="637.04382"
       y2="354.2131"
       gradientUnits="userSpaceOnUse" />
    <linearGradient
       inkscape:collect="always"
       xlink:href="#linearGradient3846"
       id="linearGradient3852"
       x1="168.35121"
       y1="269.5689"
       x2="607.77365"
       y2="269.5689"
       gradientUnits="userSpaceOnUse" />
    <linearGradient
       inkscape:collect="always"
       xlink:href="#linearGradient3858"
       id="linearGradient3864"
       x1="172.75081"
       y1="197.56112"
       x2="601.47254"
       y2="197.56112"
       gradientUnits="userSpaceOnUse" />
    <linearGradient
       inkscape:collect="always"
       xlink:href="#linearGradient3858"
       id="linearGradient3876"
       x1="310.73978"
       y1="214.02238"
       x2="447.09119"
       y2="214.02238"
       gradientUnits="userSpaceOnUse" />
    <linearGradient
       inkscape:collect="always"
       xlink:href="#linearGradient3858"
       id="linearGradient3884"
       x1="180.47852"
       y1="171.08051"
       x2="611.15985"
       y2="253.10489"
       gradientUnits="userSpaceOnUse" />
    <linearGradient
       inkscape:collect="always"
       xlink:href="#linearGradient3858"
       id="linearGradient3892"
       x1="174.5497"
       y1="172.9888"
       x2="615.7843"
       y2="249.35634"
       gradientUnits="userSpaceOnUse" />
    <linearGradient
       inkscape:collect="always"
       xlink:href="#linearGradient3858"
       id="linearGradient3900"
       x1="176.19069"
       y1="176.11749"
       x2="616.49469"
       y2="246.82817"
       gradientUnits="userSpaceOnUse" />
    <linearGradient
       inkscape:collect="always"
       xlink:href="#linearGradient3902"
       id="linearGradient3908"
       x1="390.4806"
       y1="214.7884"
       x2="497.44198"
       y2="214.7884"
       gradientUnits="userSpaceOnUse" />
    <linearGradient
       inkscape:collect="always"
       xlink:href="#linearGradient4062"
       id="linearGradient4068"
       x1="160.20425"
       y1="608.70801"
       x2="573.66901"
       y2="622.95667"
       gradientUnits="userSpaceOnUse" />
  </defs>
  <sodipodi:namedview
     id="base"
     pagecolor="#ffffff"
     bordercolor="#666666"
     borderopacity="1.0"
     inkscape:pageopacity="0.0"
     inkscape:pageshadow="2"
     inkscape:zoom="0.49127573"
     inkscape:cx="372.04724"
     inkscape:cy="519.34415"
     inkscape:document-units="px"
     inkscape:current-layer="layer1"
     showgrid="false"
     inkscape:window-width="1366"
     inkscape:window-height="706"
     inkscape:window-x="-8"
     inkscape:window-y="-8"
     inkscape:window-maximized="1" />
  <metadata
     id="metadata7">
    <rdf:RDF>
      <cc:Work
         rdf:about="">
        <dc:format>image/svg+xml</dc:format>
        <dc:type
           rdf:resource="http://purl.org/dc/dcmitype/StillImage" />
        <dc:title></dc:title>
      </cc:Work>
    </rdf:RDF>
  </metadata>
  <g
     inkscape:label="Capa 1"
     inkscape:groupmode="layer"
     id="layer1">
    <path
       style="fill:none;stroke:#000000;stroke-width:10.8;stroke-linecap:butt;stroke-linejoin:miter;stroke-opacity:1;stroke-miterlimit:4;stroke-dasharray:none"
       d="m 187.26755,810.13568 10.17758,24.42621 24.4262,24.4262 48.8524,34.60378 40.71034,10.17759 85.4917,2.03551 50.88792,-20.35516 36.63931,-22.39069 28.49723,-32.56827 128.23756,-484.45299 -36.6393,-79.38516 8.14207,-20.35517 0,-20.35517 -22.39069,-34.60378 -48.8524,-32.56827 -83.45619,-18.31965 -75.31412,-6.10655 -63.10102,2.03552 -85.49171,10.17758 -54.95895,30.53275 -14.24862,36.6393 6.10655,28.49724 -42.74585,77.34964 z"
       id="path3004"
       inkscape:connector-curvature="0" />
    <path
       style="fill:none;stroke:#000000;stroke-width:10.8;stroke-linecap:butt;stroke-linejoin:miter;stroke-opacity:1;stroke-miterlimit:4;stroke-dasharray:none"
       d="m 166.91238,246.29753 52.92343,38.67482 48.85241,16.28414 44.78137,12.2131 52.92343,8.14206 85.49171,8.14207 67.17205,-16.28413 54.95896,-16.28414 30.53275,-26.46172"
       id="path3006"
       inkscape:connector-curvature="0" />
    <path
       style="fill:none;stroke:#000000;stroke-width:10.8;stroke-linecap:butt;stroke-linejoin:miter;stroke-opacity:1;stroke-miterlimit:4;stroke-dasharray:none"
       d="m 309.39855,211.69375 -56.99447,32.56827 -2.03551,14.24861 14.24861,18.31965 93.63378,20.35517 103.81135,0 91.59826,-16.28413 52.92343,-34.60379 -4.07103,-36.6393"
       id="path3008"
       inkscape:connector-curvature="0" />
    <path
       style="fill:none;stroke:#000000;stroke-width:10.8;stroke-linecap:butt;stroke-linejoin:miter;stroke-opacity:1;stroke-miterlimit:4;stroke-dasharray:none"
       d="m 179.12548,175.05444 -10.17759,28.49724 16.28414,28.49723 34.60378,26.46172 48.85241,18.31965"
       id="path3010"
       inkscape:connector-curvature="0" />
    <path
       style="fill:none;stroke:#000000;stroke-width:10.8;stroke-linecap:butt;stroke-linejoin:miter;stroke-opacity:1;stroke-miterlimit:4;stroke-dasharray:none"
       d="m 435.60059,252.40408 -36.6393,44.78137"
       id="path3012"
       inkscape:connector-curvature="0" />
    <path
       style="fill:none;stroke:#000000;stroke-width:10.8;stroke-linecap:butt;stroke-linejoin:miter;stroke-opacity:1;stroke-miterlimit:4;stroke-dasharray:none"
       d="M 376.57061,195.40961 z"
       id="path3014"
       inkscape:connector-curvature="0" />
    <path
       style="fill:none;stroke:#000000;stroke-width:10.8;stroke-linecap:butt;stroke-linejoin:miter;stroke-opacity:1;stroke-miterlimit:4;stroke-dasharray:none"
       d="m 306.17521,189.81788 c 11.24231,31.23447 34.36078,38.25832 64.28885,44.26655 l 83.45619,12.2131 48.8524,-16.28413 2.03551,-20.35517 -14.24861,-16.28413 -40.71034,-10.17759 -32.56827,-2.03552 -38.67482,10.17759 75.31413,42.74585 -16.8093,9.90984 c 2.71404,-2.71403 26.31314,-12.28938 15.92024,-10.9705 l -69.20757,-39.83162 c -30.22933,-6.40851 -45.34039,-15.11207 -77.64841,-3.37427 z"
       id="path3018"
       inkscape:connector-curvature="0"
       sodipodi:nodetypes="cccccccccccccc" />
    <path
       style="fill:none;stroke:#000000;stroke-width:10.8;stroke-linecap:butt;stroke-linejoin:miter;stroke-opacity:1;stroke-miterlimit:4;stroke-dasharray:none"
       d="m 195.40961,238.15546 24.4262,-30.53275 c 10.94163,-6.16375 17.55649,-12.3275 32.92182,-18.49125 23.83272,-8.16734 46.48349,-9.24306 69.43397,-12.11696"
       id="path3020"
       inkscape:connector-curvature="0"
       sodipodi:nodetypes="cccc" />
    <path
       style="fill:none;stroke:#000000;stroke-width:10.8;stroke-linecap:butt;stroke-linejoin:miter;stroke-opacity:1;stroke-miterlimit:4;stroke-dasharray:none"
       d="m 319.57614,177.08996 32.56827,-6.10655 30.53275,0 32.56827,0 c 0,0 22.39068,0 30.53275,0 8.14207,0 16.28413,8.14207 24.4262,10.17758 8.14207,2.03552 42.74585,16.28414 42.74585,16.28414 l 38.67482,16.28413 20.35517,20.35517 10.17758,24.4262 -10.17758,12.2131"
       id="path3022"
       inkscape:connector-curvature="0" />
    <path
       style="fill:none;stroke:#000000;stroke-width:10.8;stroke-linecap:butt;stroke-linejoin:miter;stroke-opacity:1;stroke-miterlimit:4;stroke-dasharray:none"
       d="m 392.85474,462.06231 83.45619,-4.07103 63.10102,-10.17759 c 0,0 30.53275,-16.28413 38.67482,-16.28413 8.14207,0 34.60379,-24.4262 34.60379,-24.4262 l 26.46171,-65.13654"
       id="path3026"
       inkscape:connector-curvature="0" />
    <path
       style="fill:none;stroke:#000000;stroke-width:10.80000019;stroke-linecap:butt;stroke-linejoin:miter;stroke-miterlimit:4;stroke-opacity:1;stroke-dasharray:none"
       d="m 126.13101,317.54062 c 8.82057,16.70513 13.64115,43.11425 22.46172,42.74585 l 41.05354,45.40268 40.26058,27.87593 53.02998,14.24861 83.45619,10.17759 40.71034,2.03552"
       id="path3028"
       inkscape:connector-curvature="0"
       sodipodi:nodetypes="ccccccc" />
    <path
       style="fill:none;stroke:#000000;stroke-width:10.8;stroke-linecap:butt;stroke-linejoin:miter;stroke-opacity:1;stroke-miterlimit:4;stroke-dasharray:none"
       d="m 435.22422,252.97797 c 7.07107,-8.83884 7.07107,-8.83884 7.07107,-8.83884"
       id="path3030"
       inkscape:connector-curvature="0" />
    <path
       style="fill:none;stroke:#000000;stroke-width:10.8;stroke-linecap:butt;stroke-linejoin:miter;stroke-opacity:1;stroke-miterlimit:4;stroke-dasharray:none"
       d="m 309.71277,211.61222 13.08147,-6.71751"
       id="path3032"
       inkscape:connector-curvature="0" />
    <path
       style="fill:none;stroke:#000000;stroke-width:10.8;stroke-linecap:butt;stroke-linejoin:miter;stroke-opacity:1;stroke-miterlimit:4;stroke-dasharray:none"
       d="m 387.49451,193.22745 29.69849,-8.83884 32.52691,3.18198 37.83021,9.19239 12.37437,12.37437 -1.76776,18.38478 -44.19418,15.55634 -10.96015,-1.76776"
       id="path3034"
       inkscape:connector-curvature="0" />
    <path
       style="fill:none;stroke:#000000;stroke-width:10.8;stroke-linecap:butt;stroke-linejoin:miter;stroke-opacity:1;stroke-miterlimit:4;stroke-dasharray:none"
       d="m 343.65389,196.05587 -18.38477,-1.41421 13.78858,16.97056 31.46625,13.78858 42.42641,2.82843 -4.24264,-15.55635 -28.63783,-15.55635 z"
       id="path3036"
       inkscape:connector-curvature="0" />
    <path
       style="fill:url(#linearGradient3908);stroke-width:10.80000000000000100;stroke-miterlimit:4;stroke-dasharray:none;fill-opacity:1"
       d="m 452.8457,237.38989 c 2.16623,-2.66231 3.43902,-5.20345 2.82843,-5.64698 -0.61059,-0.44353 -15.52892,-9.00411 -33.15184,-19.02353 l -32.04169,-18.21712 12.2427,-3.73179 c 23.26143,-7.09052 76.35471,1.50434 89.30769,14.45732 5.09185,5.09185 6.26809,8.50905 4.86002,14.11926 -1.53676,6.12291 -5.10899,8.47454 -20.67815,13.61257 -10.35125,3.41605 -20.72965,6.89946 -23.0631,7.74091 -3.66406,1.32128 -3.70553,0.86979 -0.30406,-3.31064 l 0,0 z"
       id="path3038"
       inkscape:connector-curvature="0" />
    <path
       style="fill:url(#linearGradient3844);stroke-width:5.6;stroke-miterlimit:4;stroke-dasharray:none;fill-opacity:1"
       d="m 382.43908,457.12745 c -38.60856,-2.87875 -108.36695,-12.94178 -131.97622,-19.03829 -30.13766,-7.78229 -46.00487,-18.95769 -78.21795,-55.08951 -10.60144,-11.8911 -21.61918,-23.52937 -24.48386,-25.86283 -7.7027,-6.27429 -17.02932,-23.08246 -17.04141,-30.71155 -0.006,-3.66846 8.56366,-22.25401 19.04329,-41.30123 l 19.05385,-34.63129 24.59715,18.0538 c 25.45342,18.6823 36.95509,23.68375 87.00732,37.83476 35.45288,10.02342 65.70575,15.06242 126.46414,21.06422 51.29682,5.06718 43.73601,6.08268 130.18883,-17.48584 33.59793,-9.15937 38.68367,-11.40586 51.80355,-22.88281 8.30251,-7.26284 15.58834,-11.65209 16.97119,-10.22407 1.33267,1.37625 8.89673,16.65359 16.80897,33.94965 l 14.38592,31.44739 -12.63654,30.77801 c -14.54038,35.41503 -25.74304,47.93683 -51.51275,57.57852 -8.55455,3.20066 -19.58666,7.91506 -24.51576,10.47642 -19.85429,10.3171 -116.9045,19.70085 -165.93972,16.04465 z"
       id="path3042"
       inkscape:connector-curvature="0" />
    <path
       style="fill:url(#linearGradient3832);stroke-width:10.80000000000000100;stroke-miterlimit:4;stroke-dasharray:none;fill-opacity:1.0"
       d="M 292.14959,896.95017 C 258.46153,888.03058 206.11299,848.55488 195.18168,823.8273 190.80233,813.92081 183.69509,762.50796 163.11987,591.89627 148.58051,471.33457 135.89545,367.26298 134.93084,360.62609 L 133.177,348.559 l 20.24676,21.01206 c 11.13571,11.55664 22.07041,23.61571 24.29933,26.79794 2.22892,3.18223 13.24547,13.29223 24.48122,22.46666 19.36788,15.81464 22.04417,17.06029 51.54134,23.98941 17.11198,4.01974 48.93178,9.31317 70.71067,11.7632 21.77889,2.45002 46.59834,5.57065 55.15433,6.93473 33.33282,5.31425 147.62526,-5.53524 168.04486,-15.95207 4.53131,-2.31159 15.19513,-6.59624 23.69741,-9.52145 25.81409,-8.88135 41.11979,-22.69341 50.2329,-45.33083 4.31103,-10.70886 8.37056,-18.93837 9.02112,-18.28781 0.65057,0.65057 -25.84011,103.43551 -58.86816,228.41098 l -60.05102,227.22812 -15.01985,17.28333 c -16.95945,19.51527 -38.96156,33.7196 -74.30793,47.97241 -23.83565,9.61131 -24.42846,9.69528 -66.63349,9.44019 -32.68763,-0.19771 -47.46253,-1.5491 -63.5769,-5.8157 l 0,0 z"
       id="path3040"
       inkscape:connector-curvature="0" />
    <path
       style="fill:url(#linearGradient4068);stroke-width:10.80000019000000000;stroke-miterlimit:4;stroke-dasharray:none;fill-opacity:1"
       d="m 278.28181,768.09893 c -0.0528,1.08637 0.0152,2.32556 0.17933,3.79142 1.21849,10.89106 4.61927,19.95701 6.95886,18.61042 1.20196,-0.69182 1.49656,-0.30717 0.68674,0.91581 -0.77457,1.16971 0.089,3.8188 1.9325,5.87337 1.84346,2.05456 3.56792,4.97809 3.85048,6.49984 0.89747,4.83326 30.34648,34.03719 32.93002,32.65933 1.31928,-0.70359 1.73816,-0.61394 0.94736,0.20854 -0.79081,0.8225 2.12964,4.23974 6.46922,7.59539 16.90149,13.06934 45.38579,24.9958 60.8775,25.48619 9.65858,0.30518 21.71788,-1.54265 23.36386,-3.59054 0.58429,-0.72693 3.7313,-2.5188 6.98101,-3.98446 7.69053,-3.46857 12.50109,-8.08179 15.67298,-15.01001 5.1767,-11.3072 4.62018,-29.35317 -1.883,-58.84327 -3.38182,-15.33558 -6.5445,-29.63006 -6.99327,-31.7873 -0.44875,-2.15725 -0.78977,-10.04742 -0.76276,-17.52206 0.0546,-15.11863 4.30027,-25.86483 12.92242,-32.83279 4.2027,-3.39641 4.58294,-4.58705 2.76274,-8.26013 -2.10141,-4.24054 -2.40353,-33.18168 -0.3817,-36.34971 2.36036,-3.69852 4.22973,-18.0513 2.35584,-18.11 -3.99568,-0.1252 -19.48694,21.01231 -17.18963,23.45819 0.65262,0.69481 0.10325,1.25523 -1.23038,1.21346 -1.33361,-0.0418 -2.09119,1.01416 -1.6837,2.36184 0.4075,1.34767 -0.41967,3.30091 -1.8346,4.32453 -1.41493,1.0236 -3.10474,4.02949 -3.75654,6.67889 -5.84393,23.75468 -6.1291,26.47 -4.46364,42.57718 1.53135,14.81035 7.81366,43.25955 11.87932,53.76088 5.20642,13.44774 6.40487,43.58154 2.08733,52.3214 -1.30445,2.64057 -5.91154,7.10289 -10.2368,9.90401 -6.84908,4.43559 -9.9707,5.06846 -24.15408,5.02646 -8.95693,-0.0266 -16.25196,-0.76644 -16.22456,-1.64099 0.0274,-0.87453 -4.97203,-3.15661 -11.10863,-5.08765 -6.13662,-1.93105 -16.14182,-6.72044 -22.2321,-10.65276 -6.09028,-3.93233 -12.28228,-7.2111 -13.75334,-7.25717 -1.47107,-0.0461 -2.65287,-0.71302 -2.63543,-1.5134 0.0172,-0.80042 -3.10595,-3.74709 -6.94952,-6.5373 -3.84357,-2.79021 -8.73867,-6.63223 -10.88129,-8.53845 -2.14262,-1.90621 -7.34206,-6.44733 -11.54845,-10.07961 -4.20639,-3.63231 -7.67338,-7.03955 -7.72186,-7.57503 -0.0484,-0.53547 -2.17879,-5.43481 -4.72683,-10.87947 -4.06861,-8.69386 -4.28537,-10.33258 -1.81282,-13.50085 2.64339,-3.38714 5.41305,-2.79925 5.83406,1.22606 0.10272,0.98216 0.29075,2.63517 0.39154,3.67884 0.29647,3.06954 11.22122,8.4463 12.68223,6.23991 0.70155,-1.05947 2.03677,-1.43477 2.94739,-0.83177 4.28739,2.83899 0.65721,-7.58952 -3.82876,-11.0004 -8.9236,-6.78502 -15.71999,-7.23093 -21.89495,-1.43106 -3.37425,3.16928 -4.66621,5.14507 -4.82409,8.40422 z m 7.96999,-254.44259 c -0.16482,2.47508 0.81202,5.55884 3.01996,12.07801 2.2497,6.64249 5.87412,14.48458 8.03941,17.4221 2.16527,2.93749 3.48914,5.5811 2.94597,5.87531 -0.54319,0.2942 1.84193,4.08101 5.31051,8.42356 3.46858,4.34254 7.22524,7.37426 8.34451,6.73006 1.11928,-0.64423 1.44937,-0.2751 0.71933,0.82738 -0.73003,1.10247 1.5256,4.575 5.03416,7.72929 16.02661,14.40829 21.13134,18.51148 22.62055,18.23652 0.88117,-0.16268 2.40185,1.27673 3.38821,3.17652 0.98637,1.89975 2.94402,3.4905 4.36071,3.53487 1.41667,0.0444 3.61419,1.41459 4.88281,3.04446 1.26865,1.62987 3.02001,2.5483 3.87036,2.05884 0.85036,-0.48942 2.02929,0.4868 2.61494,2.16858 0.58565,1.68178 1.94502,2.54398 3.04024,1.91362 1.09521,-0.63037 1.97718,-0.31153 1.9459,0.68695 -0.0829,2.64472 16.79365,10.10246 31.93093,14.11636 24.01835,6.36881 44.47765,0.36405 51.41685,-15.08277 1.9453,-4.33029 1.66653,-16.16909 -0.47968,-19.89795 -0.48444,-0.84166 -1.79422,-1.01284 -2.87936,-0.38829 -1.08511,0.62457 -1.68815,-0.041 -1.35489,-1.47329 1.53181,-6.58081 -16.12315,-29.25807 -20.71865,-26.61304 -2.26866,1.30577 4.22944,8.89647 7.70686,9.0054 0.90366,0.0283 1.59487,1.42559 1.54278,3.08889 -0.0521,1.66328 0.79128,2.50317 1.87881,1.87721 1.08753,-0.62593 1.94662,0.66421 1.8778,2.86092 -0.0687,2.19674 0.551,4.01173 1.3938,4.03813 1.90311,0.0596 1.2361,9.45915 -1.01358,14.27681 -0.91755,1.96493 -5.10996,5.00862 -9.33289,6.74271 -6.70039,2.75137 -9.09928,2.80632 -18.6751,0.45835 -6.03518,-1.47981 -17.86305,-5.86123 -26.28509,-9.73638 -8.42204,-3.87514 -15.72601,-7.17257 -16.2558,-7.30574 -2.87251,-0.72211 -17.86677,-9.079 -16.26033,-9.06466 2.53991,0.0227 -11.48559,-10.13727 -14.10769,-10.2194 -1.12347,-0.0352 -2.03387,-0.73361 -2.0082,-1.55337 0.0256,-0.81978 -2.08246,-2.86491 -4.68633,-4.5586 -4.97727,-3.23747 -31.61064,-30.02458 -29.7949,-29.96771 0.57934,0.0181 -0.31569,-2.25665 -2.01816,-5.04141 -1.70248,-2.78476 -2.75543,-7.33008 -2.3361,-10.11897 0.74361,-4.94554 0.89293,-4.85494 6.128,3.26234 2.95217,4.5775 7.40492,8.90226 9.89381,9.61045 2.48887,0.7082 4.49688,2.04232 4.46776,2.97185 -0.0693,2.21 13.28233,9.53067 20.01624,10.97087 8.99218,1.92318 16.0941,-0.24807 17.54659,-5.35266 1.32928,-4.6716 -2.50101,-15.37061 -5.53708,-15.46571 -0.89731,-0.0282 -1.39775,-0.67576 -1.11759,-1.43605 0.68837,-1.86801 -7.08032,-6.24099 -8.5829,-4.82969 -0.65576,0.61595 1.48235,4.08261 4.76708,7.69112 6.00912,6.60139 7.79913,14.92266 3.27752,15.27569 -6.22293,0.48584 -9.00005,-0.33112 -19.49545,-5.70808 -11.44075,-5.86124 -25.83013,-19.50293 -25.67819,-24.35382 0.16589,-5.29598 18.29079,-1.744 31.34614,6.13891 2.45802,1.48417 3.35659,1.33121 3.41734,-0.60839 0.12282,-3.91961 -13.22258,-9.71124 -24.08687,-10.44256 -10.67243,-0.71843 -14.31088,-3.2664 -14.1775,-9.8937 0.10709,-5.31721 2.34976,-16.79503 4.08144,-20.85803 0.67372,-1.58079 1.11529,-3.54612 0.97097,-4.35159 -0.14431,-0.80546 0.61674,-1.44135 1.68362,-1.40793 1.06689,0.0334 1.9742,-1.16772 2.02154,-2.67914 0.0473,-1.51142 0.83109,-3.01627 1.74425,-3.34366 0.91316,-0.32735 4.96646,-4.89778 8.99348,-10.18141 l 7.30619,-9.60828 -7.84664,-6.44616 c -4.31386,-3.53574 -8.37845,-6.43299 -9.03879,-6.45368 -1.39698,-0.0438 -11.07724,17.16792 -11.2696,20.03668 -0.0715,1.06569 -1.13526,2.77176 -2.38457,3.80055 -6.29006,5.17985 -9.39884,33.85306 -4.56971,42.15651 2.69841,4.63982 2.3084,10.2158 -1.13191,16.1511 -1.46072,2.52005 -2.29565,4.08015 -2.42382,6.0052 z m 4.30347,-129.77492 c -0.1244,3.50205 0.95743,6.4488 3.0856,5.22389 1.0432,-0.60043 1.37839,0.11885 0.75462,1.60353 -0.62375,1.48475 0.59202,4.85539 2.68714,7.47692 2.09513,2.62152 6.88015,8.58433 10.61478,13.24 3.73464,4.65568 7.63281,8.4665 8.67662,8.49921 1.04383,0.0327 4.12216,2.60425 6.85651,5.69971 7.69872,8.7155 44.26715,31.86714 46.70922,29.57342 0.68963,-0.64774 1.22557,-0.10802 1.18461,1.19968 -0.041,1.30767 0.8118,1.84801 1.89933,1.22206 1.08754,-0.62593 1.94435,-0.21504 1.90961,0.89449 -0.0348,1.10953 2.23382,2.66611 5.04844,3.46699 2.81459,0.80088 8.57692,3.57487 12.80415,6.15429 4.22724,2.57941 8.36548,4.29278 9.21115,3.80605 1.98852,-1.14454 4.20909,8.79451 2.3528,10.53683 -1.89781,1.78129 -16.47035,1.23956 -15.27446,-0.56787 1.77701,-2.68577 -10.08114,-1.76257 -14.49288,1.12594 -8.18571,5.35952 -4.59792,15.96167 10.63764,31.54375 15.09076,15.43398 44.92705,30.14207 54.42626,26.8342 1.9824,-0.69032 3.57894,-1.00964 3.56996,-0.72285 -0.009,0.28681 2.06751,-1.12725 4.59942,-3.13496 5.1925,-4.11744 5.10878,-10.70083 -0.25449,-19.47358 -3.29284,-5.38614 -29.83016,-25.08005 -33.9682,-25.20967 -2.86798,-0.0898 -4.66036,-4.43655 -4.45881,-10.87108 0.13591,-4.33853 0.78693,-4.58572 10.82358,-3.89391 5.86067,0.40397 10.62733,1.40993 10.60256,2.21011 -0.0682,2.20196 11.17666,2.0748 12.64362,-0.14054 0.70408,-1.06327 1.89284,-1.52459 2.65518,-1.01978 2.44194,1.61698 5.80346,-1.46616 7.30598,-6.74658 1.21246,-4.26106 0.0965,-6.68419 -6.49758,-14.30341 -7.80254,-9.01554 -8.30037,-10.90457 -3.09443,-11.60339 5.47862,-0.73542 11.48499,-5.02505 11.58608,-8.25202 0.0579,-1.84856 -1.9518,-6.62508 -4.49606,-10.63376 -5.3311,-8.3996 -5.54243,-9.47418 -1.88291,-9.35954 4.22247,0.13226 7.70757,-5.11737 6.63151,-9.95731 -1.0574,-4.75595 -15.41906,-23.31705 -18.1066,-23.40124 -0.89323,-0.028 -3.92075,-2.33112 -6.72626,-5.09943 -2.80549,-2.76831 -5.50199,-4.63071 -6.01066,-4.15294 -0.50868,0.47778 -2.16091,-0.45428 -3.66191,-2.05232 -3.05377,-3.25128 -6.3162,-3.91541 -6.39801,-1.30337 -0.059,1.88056 7.78559,7.83217 11.58855,8.79908 3.19443,0.81221 10.33841,8.2405 9.67136,10.05064 -0.29177,0.79181 0.40281,1.47329 1.53265,1.50868 1.12984,0.0354 1.44362,0.97107 0.70992,2.07909 -1.87832,2.83659 -10.39192,1.25678 -18.25697,-3.37397 -3.67006,-2.16083 -11.38617,-6.65886 -17.1546,-10.01675 -5.76842,-3.35789 -12.49925,-7.44694 -14.94812,-9.08316 -2.44886,-1.63623 -6.53102,-3.43447 -9.08645,-3.981 -4.18861,-0.89583 -4.67019,-0.3154 -4.86298,5.83939 -0.11766,3.75494 0.55912,6.84388 1.51364,6.87378 0.95853,0.03 0.99866,2.87515 0.0992,6.35252 -3.29265,12.72834 -0.12454,19.82951 13.84186,31.07772 5.54611,4.4667 10.13784,7.4429 10.19648,6.60919 0.0586,-0.8337 0.93732,0.0386 1.9663,1.9396 1.02896,1.90109 3.14097,3.49667 4.68828,3.54514 1.54731,0.0485 2.77406,0.89462 2.74336,1.87448 -0.0307,0.97988 3.01762,3.80322 6.7783,6.29346 3.76068,2.49025 8.83682,6.66951 11.27584,9.26623 2.43898,2.59674 5.40927,4.73029 6.58761,4.7672 1.17833,0.0369 1.58419,0.94913 0.89139,1.99535 -0.69277,1.04622 -0.30483,1.92807 0.86257,1.96462 1.47701,0.0463 1.47418,1.14017 0.035,3.63787 -1.91613,3.32569 -2.88691,3.39667 -13.20111,0.80869 -15.61362,-3.91769 -17.64988,-5.06157 -26.7742,-15.05779 -4.45171,-4.87709 -8.65996,-8.37035 -9.32626,-7.7445 -0.66634,0.62584 -0.1096,2.51639 1.20951,4.21121 3.58895,4.61086 0.74037,5.73817 -6.33875,2.51413 -3.45571,-1.57384 -6.95508,-2.67768 -7.76317,-2.44909 -0.8081,0.22862 -1.41716,-0.43712 -1.38375,-1.504 0.0334,-1.06688 -1.33193,-1.97933 -3.00674,-2.0318 -1.67482,-0.0525 -6.76063,-2.85063 -11.31235,-6.19699 -4.55172,-3.34636 -9.54414,-6.11182 -11.10481,-6.1607 -1.56068,-0.0489 -3.33739,-1.47552 -3.92519,-3.16352 -0.58782,-1.688 -1.94503,-2.54398 -3.04024,-1.91361 -1.09524,0.63036 -1.97433,0.22011 -1.93939,-0.8954 0.0349,-1.11553 -2.95917,-3.41026 -6.66668,-5.09759 -8.46748,-3.8536 -27.49761,-19.56188 -27.40184,-22.61924 0.0394,-1.25874 -0.69042,-2.61679 -1.60513,-3.00142 -0.91472,-0.38462 -2.20971,-2.67437 -2.88088,-5.09823 -1.0463,-3.77866 -0.51421,-4.36829 3.73961,-4.23504 4.77527,0.14958 4.84045,-0.0156 1.76011,-3.84991 -4.01937,-5.0032 -6.60011,-5.08365 -11.10616,-0.40754 -1.62425,1.68555 -2.46217,4.73784 -2.55887,7.46166 z m 13.1204,-29.63698 c 0.11079,1.28792 1.01082,2.97635 2.67894,4.88323 2.06655,2.36232 3.33794,4.27789 2.84744,4.26253 -0.49051,-0.0153 1.10427,4.02581 3.53483,8.96413 2.43056,4.93831 4.35992,11.17259 4.27617,13.84631 -0.0911,2.90755 0.66787,4.38304 1.9122,3.66685 1.30124,-0.74896 1.80547,0.70658 1.3389,3.88735 -0.57839,3.94309 0.54679,5.8489 4.97826,8.56222 3.14351,1.92471 6.38036,4.65533 7.20362,6.0385 0.82325,1.38315 2.18036,2.09802 3.01979,1.61487 4.22483,-2.43168 -0.38089,-22.25926 -8.56473,-36.81471 -5.61598,-9.98835 -16.02199,-21.21407 -19.8675,-21.42934 -2.36082,-0.13207 -3.50029,0.86213 -3.35792,2.51806 z m 18.77301,352.33993 c -0.0752,3.12377 0.6948,6.65 2.44961,10.30138 1.40709,2.92784 7.23124,10.08139 12.94676,15.87667 9.26024,9.38944 16.36462,22.75393 13.5119,25.43338 -0.55664,0.52283 -4.27511,-0.0619 -8.27604,-1.30256 -7.42617,-2.30299 -15.33693,-1.6668 -19.78451,1.616 -4.37735,3.23097 -3.00764,12.88957 3.3188,23.47459 5.73966,9.60329 12.39228,17.40021 12.47968,14.61003 0.021,-0.67231 2.53626,1.11289 5.56863,3.99003 10.91125,10.35269 22.81281,15.43933 38.03481,16.24518 16.51879,0.87451 18.51872,-0.62086 17.65048,-13.42778 -0.56491,-8.33242 -7.12743,-17.9599 -12.36962,-18.12411 -1.17639,-0.0369 -1.59644,-0.89136 -0.92397,-1.90694 0.67248,-1.01554 -0.99463,-2.48009 -3.68415,-3.24538 -2.68952,-0.76529 -4.85529,-2.01981 -4.83165,-2.77458 0.0237,-0.75476 -3.3892,-3.43895 -7.56377,-5.96034 -10.15754,-6.13504 -13.31681,-9.77305 -13.14876,-15.13775 0.10114,-3.2287 1.49381,-4.68878 4.96346,-5.24005 2.65068,-0.42117 4.39559,-0.10286 3.85276,0.71688 -1.45926,2.20375 6.31377,4.49653 18.13583,5.3376 14.29872,1.01725 18.70677,-2.9912 17.58088,-15.96378 -0.8125,-9.3617 -8.97434,-25.07169 -12.56739,-24.18162 -1.0516,0.2605 -1.36555,-0.33379 -0.70347,-1.33365 0.66209,-0.99985 0.32553,-2.38941 -0.73775,-3.09348 -3.77766,-2.50147 -1.70933,-4.94231 4.02441,-4.76271 3.20065,0.10021 5.83613,-0.74309 5.87152,-1.87294 0.0354,-1.12985 0.86358,-1.51648 1.84552,-0.86628 0.98192,0.6502 2.75428,-0.31772 3.91348,-2.17274 1.15918,-1.85503 2.13599,-3.56178 2.17517,-3.77729 0.25031,-1.37528 -4.67699,-11.95526 -6.87073,-14.76225 -2.34504,-3.00058 -2.02779,-3.92053 2.90043,-7.89809 5.30773,-4.28384 5.45073,-4.77824 3.15102,-11.13948 -3.09303,-8.55556 -5.45777,-11.84977 -7.65743,-10.58374 -0.9643,0.55503 -1.71309,-0.50609 -1.65542,-2.34718 0.0577,-1.8411 -0.45854,-2.80658 -1.15477,-2.15265 -0.69621,0.65394 -2.86863,-0.98077 -4.80552,-3.60842 -4.56945,-6.1991 -24.36136,-17.85842 -24.46908,-14.41919 -0.0431,1.37614 2.81633,3.97591 6.37628,5.8039 14.82931,7.61466 23.16229,22.07247 9.41498,16.33241 -6.10213,-2.54789 -40.4472,-20.24875 -49.05008,-25.26476 -2.82003,-1.64425 -5.6237,-2.18643 -6.25098,-1.23913 -2.40205,3.62749 -0.52405,35.54568 2.37482,40.28738 3.29264,5.38581 14.1131,16.25061 17.02193,17.10725 1.05815,0.31163 3.49168,2.13435 5.41786,4.04495 1.92617,1.91057 4.73953,3.04336 6.24065,2.52061 1.50113,-0.52273 2.68436,-0.048 2.64944,1.06671 -0.0654,2.08939 16.4706,15.58183 18.68976,15.25168 2.85971,-0.42542 13.25596,19.3291 13.08291,24.85359 -0.16637,5.31144 -0.81877,5.87814 -6.50464,5.90719 -3.47131,0.0177 -7.18237,-0.22101 -8.24073,-0.52642 -1.05835,-0.30558 -4.09317,-1.07155 -6.74326,-1.7017 -2.65008,-0.63014 -5.22557,-1.70195 -5.7372,-2.41542 -0.5116,-0.71346 -4.09113,-2.89262 -7.95657,-4.83987 -3.86543,-1.94727 -11.32652,-7.88347 -16.5783,-13.18833 -9.85186,-9.95141 -12.30193,-17.34693 -5.66352,-17.13899 2.22779,0.0698 3.24583,1.08018 2.60093,2.61528 -1.37151,3.26463 6.84212,10.86529 10.40007,9.62632 1.50101,-0.52268 3.0996,-0.91643 3.5458,-0.90246 0.44617,0.014 0.84091,-1.15134 0.88521,-2.5657 0.12719,-4.06043 -7.78636,-10.70488 -14.78409,-12.41669 -8.4908,-2.07705 -14.17021,3.25247 -14.36239,11.23544 z m 3.71257,-105.20061 c -0.0828,1.33563 0.46145,2.68404 1.47482,3.35505 1.35114,0.89469 1.91876,2.91465 1.26068,4.4811 -0.65808,1.56645 -0.026,4.63787 1.39639,6.81049 2.93995,4.49028 11.74059,7.18048 13.05093,3.98594 2.51456,-6.1304 -0.89131,-14.81342 -5.88052,-14.9697 -1.14307,-0.0358 -1.81547,-1.00278 -1.51213,-2.16385 0.30335,-1.16105 -1.42868,-2.94414 -3.84044,-3.96572 -3.32207,-1.40715 -4.70496,-1.13437 -5.67044,1.16381 -0.17522,0.41712 -0.25169,0.85767 -0.27929,1.30288 z m 3.19599,162.53197 c 0.0727,-3.23889 1.1042,-3.7512 5.2109,-3.62257 2.97211,0.0931 7.64111,1.09865 10.36338,2.23243 3.94739,1.64401 4.80679,3.22734 4.31758,7.76647 -0.68967,6.39894 -6.89161,8.65174 -14.74539,5.38078 -4.73486,-1.97199 -4.81826,-2.13147 -5.13542,-10.20666 -0.0229,-0.58042 -0.0214,-1.08774 -0.0106,-1.55045 z m 4.59901,-111.61169 c 0.11634,-1.91124 1.92077,-2.5907 5.36897,-2.00791 4.99383,0.84401 19.45362,7.55471 21.50812,9.97426 2.11697,2.49311 16.28148,11.02389 17.64221,10.62822 0.8083,-0.23502 1.44843,0.39085 1.41725,1.38583 -0.0312,0.99497 1.45339,2.34305 3.30447,2.99501 1.8511,0.65199 4.37713,2.92115 5.6244,5.06493 3.20316,5.50557 -1.8383,7.87333 -11.07309,5.19773 -3.82727,-1.10888 -8.04774,-2.13706 -9.37784,-2.29098 -1.33009,-0.15396 -2.38315,-1.00309 -2.35531,-1.89216 0.0279,-0.88906 -0.87904,-1.63724 -2.00446,-1.6725 -3.31883,-0.10391 -24.14308,-15.91224 -27.28285,-20.7077 -1.93633,-2.95741 -2.86238,-5.1882 -2.77187,-6.67473 z M 345.91753,400.8184 c 0.101,2.46238 10.82162,13.41491 21.40767,21.74585 4.16895,3.28084 8.2407,7.12187 9.06377,8.51132 0.82306,1.38948 2.52067,1.92651 3.74757,1.22034 1.38231,-0.7956 -2.36869,-5.64791 -9.85356,-12.79882 -6.64344,-6.34699 -12.79591,-11.14197 -13.64699,-10.65211 -0.85106,0.48984 -1.50628,-0.44688 -1.45537,-2.07265 0.1018,-3.25203 -7.0973,-8.24832 -9.13185,-6.33736 -0.0907,0.0853 -0.13795,0.21927 -0.13115,0.38343 z m 1.42666,380.80121 c 0.0693,-0.90544 0.59269,-1.47191 1.65477,-1.43865 0.89565,0.028 2.6949,-2.10472 3.9937,-4.73385 1.29881,-2.62914 3.65749,-4.74437 5.24448,-4.69466 5.30757,0.16625 17.30083,7.26403 22.47666,13.31345 9.60837,11.23003 5.42164,17.83891 -8.37295,13.21162 -4.8963,-1.64242 -9.32465,-3.12093 -9.85333,-3.28958 -3.46147,-1.10431 -9.10788,-4.2411 -11.92469,-6.63352 -2.15065,-1.82664 -3.33399,-4.22576 -3.21864,-5.73481 z m 20.72742,-232.52053 c -0.78818,11.56342 14.85823,29.27901 34.52025,35.18334 14.33913,4.30592 19.49384,4.8914 17.8234,1.98915 -0.63616,-1.10529 -1.87014,-1.58755 -2.76857,-1.07044 -0.89842,0.51711 -2.12048,-0.43003 -2.70613,-2.11181 -0.58565,-1.68178 -1.95656,-2.5666 -3.03932,-1.94339 -1.13417,0.6528 -1.43426,-0.10682 -0.71831,-1.81107 0.73206,-1.74258 -0.0234,-3.49993 -1.83397,-4.26058 -1.69045,-0.71016 -3.03814,-2.93251 -2.97488,-4.95213 0.0656,-2.09142 -1.34272,-3.83828 -3.27088,-4.06711 -3.39603,-0.40305 -5.98884,-0.98706 -8.67338,-1.94102 -0.79214,-0.28149 -2.30974,-0.65429 -3.37257,-0.82106 -3.60495,-0.56571 -15.16866,-11.55948 -15.08176,-14.33383 0.13555,-4.32739 7.16197,-6.72557 15.15671,-5.18903 4.01645,0.77192 7.74356,1.25565 8.28351,1.06432 0.53996,-0.19134 5.60478,2.89649 11.26112,6.881 5.65635,3.98452 11.06353,6.80322 12.02614,6.24919 0.96261,-0.55405 0.77521,-2.26648 -0.41757,-3.7989 -1.19281,-1.53241 -2.94423,-2.34678 -3.90855,-1.79176 -0.9643,0.55501 -1.73275,0.12136 -1.69833,-0.9773 0.0344,-1.09858 -4.45432,-4.27474 -9.97404,-7.04935 -11.65746,-5.85989 -27.03425,-7.26831 -33.82558,-3.11638 -3.0695,1.87653 -4.58663,4.63042 -4.80729,7.86816 z m 10.39671,-58.78654 c -0.0223,-1.0889 0.61787,-1.93884 1.88662,-3.13053 2.42047,-2.27344 4.53741,-2.29639 12.76274,-0.1368 9.67738,2.54087 9.83816,2.67142 7.31147,7.35349 -3.83406,7.10468 -15.71106,7.40735 -19.92868,0.50854 -1.33824,-2.18898 -2.00978,-3.50581 -2.03215,-4.5947 z m 4.5569,-95.99285 c -0.14975,-2.52038 1.38617,-4.23021 4.7065,-3.698 2.12466,0.34057 5.36436,0.84554 7.17884,1.11915 1.81448,0.2736 2.8962,0.89272 2.40187,1.35704 -0.49435,0.46431 4.02119,3.2256 10.06158,6.15783 6.04039,2.93223 11.98393,6.25873 13.21262,7.38928 1.22871,1.13055 5.70425,4.72787 9.94417,8.00233 8.37817,6.47038 9.33133,8.64415 4.47562,10.33504 -3.60297,1.25465 -22.57275,-4.94498 -29.06491,-9.49556 -2.38457,-1.67142 -4.33376,-2.49166 -4.35432,-1.83552 -0.0205,0.65614 -1.62394,-0.38788 -3.56416,-2.31755 -1.94021,-1.92965 -6.23654,-5.70848 -9.54491,-8.37735 -3.45429,-2.78655 -5.30315,-6.11631 -5.4529,-8.63669 z m 15.60494,113.73503 c 0.0214,-0.59946 2.57305,-3.85842 5.68299,-7.27437 6.57918,-7.22658 8.93224,-6.84012 21.11213,3.58265 10.05655,8.60574 12.61917,13.29305 8.85194,16.22534 -2.9498,2.29604 -20.55113,1.43909 -20.47763,-0.99915 0.0242,-0.80019 -0.86926,-1.48789 -1.97933,-1.52266 -2.31704,-0.0726 -13.24813,-8.3723 -13.1901,-10.01181 z"
       id="path4007"
       inkscape:connector-curvature="0" />
    <path
       style="fill:url(#linearGradient3852);stroke-width:10.80000000000000100;stroke-miterlimit:4;stroke-dasharray:none;fill-opacity:1"
       d="m 402.23807,323.21725 c -76.07296,-7.97446 -93.92837,-11.61867 -155.39884,-31.71622 -20.5789,-6.7282 -31.93416,-12.60258 -49.49748,-25.60638 -22.58048,-16.71849 -22.82522,-17.03529 -26.3637,-34.12595 -4.74129,-22.90017 -3.21179,-25.62697 5.7935,-10.32871 17.27764,29.35139 62.65487,52.17923 134.38311,67.60387 38.33759,8.24422 43.62752,8.68787 101.82338,8.53964 54.49691,-0.13881 65.98691,-1.02108 102.39711,-7.86266 40.1256,-7.53972 41.55316,-8.06031 66.03622,-24.08138 13.76324,-9.00629 25.55326,-15.84585 26.20009,-15.19903 0.64684,0.64682 -0.69995,5.66594 -2.99284,11.1536 -6.13743,14.68893 -29.37415,32.81898 -50.34496,39.28077 -14.53155,4.47765 -85.3488,22.9079 -101.1239,26.31759 -2.33346,0.50436 -25.24372,-1.28445 -50.91169,-3.97514 l 0,0 z"
       id="path3044"
       inkscape:connector-curvature="0" />
    <path
       style="fill:url(#linearGradient3864);stroke-width:10.80000000000000100;stroke-miterlimit:4;stroke-dasharray:none;fill-opacity:1"
       d="m 579.39519,246.01643 c -8.25587,-21.61768 -24.21015,-33.81855 -65.43425,-50.04015 -20.22325,-7.95781 -42.21297,-16.95429 -48.86603,-19.9922 -23.406,-10.68756 -141.6415,-6.16556 -201.44977,7.70459 -18.32822,4.2505 -45.20835,21.54452 -56.76061,36.5184 -13.63359,17.67165 -16.08519,17.4013 -27.808,-3.0666 -7.80148,-13.6213 -7.82217,-13.79407 -3.1318,-26.1504 4.32271,-11.38775 7.03925,-13.71914 32.15755,-27.5983 l 27.43598,-15.1598 51.71196,-5.85623 c 81.5969,-9.24062 135.58265,-6.99182 209.74016,8.73679 41.01522,8.69923 43.24062,9.54337 66.90528,25.37853 31.71942,21.22499 37.2815,28.99567 37.54457,52.45281 0.19233,17.15179 -0.21609,18.2745 -8.59559,23.63042 l -8.79751,5.62308 -4.65194,-12.18094 0,0 z"
       id="path3046"
       inkscape:connector-curvature="0" />
    <path
       style="fill:url(#linearGradient3892);stroke-width:10.80000000000000100;stroke-miterlimit:4;stroke-dasharray:none;fill-opacity:1"
       d="m 233.63693,261.51937 c -11.23192,-4.63031 -35.04561,-19.8238 -35.04561,-22.35962 0,-0.68322 5.33969,-8.07913 11.86597,-16.43534 15.12603,-19.36727 40.94207,-33.26693 70.54555,-37.98256 11.45434,-1.8246 31.82723,-5.14791 45.2731,-7.38512 15.13801,-2.51877 43.679,-4.02253 74.95332,-3.94911 45.21501,0.10613 51.5434,0.71191 60.40578,5.78228 l 9.89949,5.66372 -9.89949,-1.39009 c -34.9314,-4.90507 -41.62817,-4.85487 -62.40547,0.46778 -20.04441,5.1349 -22.63899,5.20266 -42.7066,1.11527 -17.93529,-3.65308 -23.92079,-3.77997 -37.27996,-0.79031 l -15.9143,3.56146 4.26452,10.20644 c 2.55461,6.11404 3.18446,10.85644 1.57085,11.82755 -1.48153,0.89161 -15.56044,8.62146 -31.28648,17.17746 l -28.59279,15.55634 0.83659,12.02082 c 0.93396,13.42011 0.12397,13.7598 -16.48447,6.91303 l 0,0 z"
       id="path3048"
       inkscape:connector-curvature="0" />
    <path
       style="fill:url(#linearGradient3884);stroke-width:10.80000000000000100;stroke-miterlimit:4;stroke-dasharray:none;fill-opacity:1"
       d="m 407.0528,291.37589 c 1.47342,-1.94454 10.15627,-12.76328 19.29521,-24.04163 14.04594,-17.33407 17.94945,-20.50609 25.23489,-20.50609 4.74025,0 18.38728,-3.25326 30.32674,-7.22946 21.40434,-7.12831 21.73437,-7.38493 23.58512,-18.33944 1.49924,-8.87396 0.68204,-12.62914 -4.0604,-18.65818 -3.26558,-4.15151 -5.50846,-7.97716 -4.98418,-8.50144 0.52429,-0.52429 13.07945,4.19416 27.90038,10.48542 28.83318,12.23928 42.57479,23.72591 51.10652,42.72003 4.5444,10.11716 4.49452,10.54119 -1.99616,16.97056 -11.59044,11.48095 -24.43237,15.88883 -68.05348,23.35875 -47.16241,8.07636 -103.25614,10.2102 -98.35464,3.74148 z"
       id="path3050"
       inkscape:connector-curvature="0" />
    <path
       style="fill:url(#linearGradient3900);stroke-width:10.80000000000000100;stroke-miterlimit:4;stroke-dasharray:none;fill-opacity:1"
       d="m 310.3567,284.9715 c -38.13648,-8.46982 -43.16763,-10.29029 -50.20458,-18.166 -8.01686,-8.97243 -9.29949,-13.27962 -5.65606,-18.99366 2.09013,-3.27798 55.34145,-34.9248 58.76709,-34.9248 1.00905,0 5.64805,2.71539 10.30888,6.03419 12.29174,8.75249 36.48313,15.53831 74.74655,20.96682 18.48989,2.62319 34.52545,5.59257 35.6346,6.59861 1.10914,1.00605 -6.4555,12.31318 -16.81031,25.12697 l -18.82694,23.2978 -22.78767,-0.2634 c -14.56699,-0.16837 -38.07771,-3.6592 -65.17156,-9.67653 z"
       id="path3052"
       inkscape:connector-curvature="0" />
    <path
       style="fill:#808080;stroke-width:10.8;stroke-miterlimit:4;stroke-dasharray:none"
       d="m 385.26751,224.22601 c -10.11163,-1.10002 -23.47595,-4.36626 -29.69849,-7.25831 -11.15403,-5.18408 -24.0377,-14.83311 -24.04577,-18.00872 -0.002,-0.89556 11.13466,-0.96428 24.74874,-0.15271 18.40715,1.09729 28.01585,3.18046 37.4808,8.12584 15.11833,7.89925 13.02964,6.0361 15.39558,13.7331 1.36425,4.43825 0.82867,6.24245 -1.76995,5.9624 -2.04938,-0.22086 -11.99929,-1.30158 -22.11091,-2.4016 z"
       id="path3054"
       inkscape:connector-curvature="0" />
    <path
       style="fill:url(#linearGradient3876);stroke-width:10.80000000000000100;stroke-miterlimit:4;stroke-dasharray:none;fill-opacity:1.0"
       d="m 393.75279,235.52757 c -16.33417,-2.74483 -34.91561,-6.41355 -41.2921,-8.1527 -13.76073,-3.75316 -31.12398,-15.11638 -30.12569,-19.71548 0.38891,-1.7917 -0.99778,-3.25763 -3.08153,-3.25763 -2.08375,0 -5.18091,-3.05571 -6.88258,-6.79048 -2.69607,-5.91724 -2.2998,-7.00345 3.08153,-8.44666 11.0296,-2.958 36.94958,-1.72192 51.43031,2.45263 13.96044,4.02456 13.76573,4.05524 -15.15537,2.38781 -28.0965,-1.6199 -29.17966,-1.47041 -26.42267,3.64667 9.10287,16.89525 32.91723,28.10983 65.77892,30.97639 l 23.33651,2.03567 -1.80622,-9.03109 -1.80621,-9.03109 19.61375,10.72637 c 18.57178,10.15653 19.28327,10.91009 13.39286,14.18462 -7.86956,4.37477 -13.55719,4.14924 -50.06151,-1.98503 z"
       id="path3056"
       inkscape:connector-curvature="0" />
    <path
       style="fill:#ffffff;stroke-width:10.80000019;stroke-miterlimit:4;stroke-dasharray:none"
       d=""
       id="path4009"
       inkscape:connector-curvature="0" />
    <path
       style="fill:#ffffff;stroke-width:10.80000019;stroke-miterlimit:4;stroke-dasharray:none"
       d=""
       id="path4021"
       inkscape:connector-curvature="0" />
    <path
       style="fill:none;stroke:#000000;stroke-width:4.2;stroke-linecap:butt;stroke-linejoin:miter;stroke-opacity:1;stroke-miterlimit:4;stroke-dasharray:none"
       d="m 293.11442,445.77818 42.74585,6.10655 56.99447,8.14207 36.6393,0 28.49724,-2.03552"
       id="path4044"
       inkscape:connector-curvature="0" />
  </g>
</svg>
